<?xml version="1.0" standalone="no"?>
<!DOCTYPE svg PUBLIC "-//W3C//DTD SVG 20010904//EN"
 "http://www.w3.org/TR/2001/REC-SVG-20010904/DTD/svg10.dtd">
<svg version="1.0" xmlns="http://www.w3.org/2000/svg"
 width="392.000000pt" height="392.000000pt" viewBox="0 0 392.000000 392.000000"
 preserveAspectRatio="xMidYMid meet">
<metadata>
Created by potrace 1.14, written by Peter Selinger 2001-2017
</metadata>
<g transform="translate(0.000000,392.000000) scale(0.100000,-0.100000)"
fill="#000000" stroke="none">
<path d="M0 1960 l0 -1960 1960 0 1960 0 0 1960 0 1960 -1960 0 -1960 0 0
-1960z m1991 1422 c74 -151 39 -272 -103 -343 -32 -16 -58 -34 -58 -40 0 -6
16 -25 35 -43 63 -59 34 -118 -63 -131 -124 -17 -148 -46 -140 -172 8 -121 88
-253 153 -253 13 0 68 -24 121 -52 72 -39 122 -76 189 -138 141 -134 133 -130
240 -130 124 0 221 -26 357 -97 l110 -57 51 28 c75 41 177 116 184 133 11 28
-22 41 -157 63 -231 37 -282 53 -327 102 -12 12 -26 36 -32 51 -34 89 14 161
204 305 l90 68 1 65 c1 94 11 134 43 167 29 32 99 57 132 47 17 -6 19 -12 13
-56 -7 -49 -5 -52 33 -92 55 -57 66 -82 66 -147 0 -66 -20 -109 -68 -146 -32
-24 -193 -89 -287 -116 -27 -7 -38 -16 -38 -29 0 -27 27 -35 191 -59 77 -11
162 -29 188 -41 105 -45 146 -131 103 -215 -11 -22 -66 -84 -121 -137 -56 -53
-101 -98 -101 -100 0 -3 31 -27 69 -56 91 -67 147 -132 229 -265 67 -110 105
-154 201 -235 63 -53 97 -117 117 -219 15 -81 26 -101 79 -160 115 -129 116
-215 1 -252 -30 -10 -47 -10 -77 -1 -50 15 -76 50 -84 114 -6 44 -15 60 -55
102 -30 32 -53 70 -64 103 -14 42 -23 53 -44 57 -98 20 -191 61 -272 120 -117
85 -167 87 -348 14 -210 -84 -310 -130 -317 -147 -4 -12 20 -42 84 -103 81
-76 91 -89 91 -120 0 -70 -87 -118 -259 -144 -201 -31 -303 -14 -309 51 -5 47
19 63 178 120 12 4 11 9 -7 23 -14 12 -48 20 -94 25 -85 8 -170 42 -194 80
-10 15 -15 39 -13 63 l3 37 -85 -3 c-82 -2 -89 -1 -155 35 -141 74 -122 70
-164 38 -21 -16 -87 -68 -146 -116 -59 -48 -143 -108 -185 -134 -62 -37 -85
-58 -114 -104 -50 -79 -84 -94 -191 -88 -87 6 -156 32 -175 67 -15 28 -12 87
5 121 22 43 59 67 148 95 45 14 92 33 104 42 40 33 173 196 175 215 0 10 1 24
2 31 1 9 -18 11 -70 9 -86 -5 -149 19 -199 74 l-33 36 -33 -37 c-19 -20 -65
-55 -104 -78 -129 -75 -215 -175 -215 -252 0 -57 -37 -124 -80 -147 -67 -35
-219 -20 -266 27 -60 60 -32 136 83 225 86 66 125 114 225 280 99 164 104 174
139 292 37 123 48 146 95 189 l36 34 -8 70 c-16 129 -9 214 21 285 38 90 41
128 16 176 -37 68 -26 198 27 318 12 27 22 54 22 61 0 7 -29 34 -65 60 -92 65
-110 109 -57 142 15 9 29 18 31 20 2 1 -12 24 -32 50 -55 76 -78 130 -85 202
-13 123 3 172 81 234 27 22 42 28 61 23 34 -8 40 -36 21 -98 -27 -92 -6 -167
64 -231 56 -50 93 -55 171 -22 78 33 188 43 257 25 27 -8 104 -14 178 -14 116
-1 135 -3 174 -24 42 -23 47 -23 125 -12 44 6 89 16 99 22 10 5 29 31 40 56
19 40 22 66 23 172 0 69 2 130 3 135 4 19 80 -79 112 -143z"/>
<path d="M726 3118 c9 -18 50 -65 90 -104 41 -39 74 -79 74 -88 0 -9 -11 -25
-24 -37 l-23 -20 19 -37 c21 -42 18 -73 -15 -137 -49 -96 -59 -202 -27 -274
27 -60 26 -122 -6 -188 -34 -73 -46 -153 -34 -228 23 -148 18 -182 -33 -214
-43 -27 -55 -49 -88 -162 -33 -116 -55 -162 -167 -343 -95 -154 -152 -221
-236 -281 -56 -40 -78 -77 -58 -97 6 -6 41 -13 79 -15 91 -7 111 8 117 91 3
50 11 68 51 127 54 79 110 128 212 188 62 36 76 49 103 100 33 62 69 88 98 72
9 -5 27 -33 41 -62 45 -92 104 -114 226 -84 l69 18 19 -24 c16 -20 18 -33 13
-78 -9 -79 -34 -125 -123 -226 -94 -107 -125 -130 -221 -158 -78 -23 -112 -46
-112 -77 0 -27 31 -40 110 -47 77 -6 71 -10 142 87 22 29 64 63 118 96 47 29
136 94 199 145 152 126 177 141 224 135 21 -2 70 -23 110 -47 92 -55 145 -61
249 -29 87 27 117 27 141 -1 27 -33 21 -59 -23 -99 -22 -20 -40 -42 -40 -48 0
-20 44 -36 138 -48 72 -9 102 -18 132 -39 71 -49 72 -116 3 -158 l-38 -22 48
-3 c55 -4 204 31 226 53 12 12 4 24 -66 92 -93 89 -109 128 -79 190 18 39 40
50 322 163 162 65 179 70 249 70 84 0 103 -7 240 -93 89 -56 161 -87 203 -87
52 0 90 -34 108 -96 15 -53 51 -104 72 -104 5 0 3 24 -4 52 -8 29 -18 78 -24
109 -15 77 -56 138 -125 183 -50 34 -71 59 -160 195 -106 162 -175 238 -271
299 -60 38 -82 78 -64 112 16 31 5 36 -35 17 -20 -9 -42 -17 -51 -17 -8 0 -49
20 -92 45 -150 87 -249 114 -414 115 -77 0 -78 0 -135 46 -32 26 -89 77 -128
114 -78 75 -126 105 -235 150 -41 17 -88 44 -103 60 -15 17 -32 30 -36 30 -16
0 -69 94 -85 149 -19 64 -21 183 -5 232 7 19 21 45 33 58 25 28 91 60 124 61
28 0 28 13 1 50 -18 23 -20 37 -15 71 5 33 4 40 -7 36 -8 -3 -35 -8 -59 -12
-39 -6 -53 -2 -104 25 -59 31 -60 32 -164 25 -80 -5 -119 -2 -163 9 -98 27
-161 19 -265 -32 -52 -25 -53 -25 -107 -8 -30 9 -75 32 -100 51 -25 19 -47 35
-50 35 -3 0 2 -14 11 -32z"/>
<path d="M2930 2751 c0 -44 -4 -91 -9 -104 -6 -14 -52 -56 -103 -95 -88 -65
-140 -112 -124 -112 3 0 33 13 65 29 32 17 94 42 138 56 45 15 97 40 117 57
32 26 36 34 36 78 0 43 -4 52 -36 82 -19 18 -42 45 -50 61 -24 46 -34 31 -34
-52z"/>
<path d="M2631 2344 c0 -11 3 -14 6 -6 3 7 2 16 -1 19 -3 4 -6 -2 -5 -13z"/>
<path d="M3622 775 l3 -60 35 0 c50 0 50 25 1 77 l-41 43 2 -60z"/>
</g>
</svg>
